<svg width="150px" height="150px" viewBox="0 0 150 150" version="1.1" xmlns="http://www.w3.org/2000/svg" xmlns:xlink="http://www.w3.org/1999/xlink">
    <!-- Generator: Sketch 42 (36781) - http://www.bohemiancoding.com/sketch -->
    <desc>Created with Sketch.</desc>
    <defs></defs>
    <g id="bong" stroke="none" stroke-width="1" fill="none" fill-rule="evenodd">
        <circle id="Oval" fill="#0EB4E3" fill-rule="nonzero" cx="75" cy="75" r="75"></circle>
        <g id="Group" transform="translate(46.000000, 25.000000)" fill-rule="nonzero">
            <path d="M53.6,67.5 C53.6,57.2 47,48.4 37.8,45.2 L37.8,4 L22,4 L22,45.1 C12.8,48.4 6.2,57.1 6.2,67.4 C6.2,77.1 12.1,85.5 20.5,89.2 L20.5,91.8 C16.2,92.5 13.8,94 13.8,95.3 C13.8,97.4 20.7,99.2 29.9,99.2 C39.1,99.2 46.1,97.4 46.1,95.2 C46.1,93.9 43.7,92.4 39.3,91.7 L39.3,89.1 C47.7,85.6 53.6,77.2 53.6,67.5 Z" id="Shape" fill="#333333"></path>
            <ellipse id="Oval" fill="#E3E8EF" cx="29.9" cy="4" rx="9.7" ry="3.3"></ellipse>
            <ellipse id="Oval" fill="#333333" cx="29.9" cy="4" rx="6.8" ry="1.6"></ellipse>
            <path d="M33.7,76.7 L30.3,79.6 L4.9,49.3 L0.6,48.6 C0.6,48.6 2.5,48.2 5.1,46 C7.6,43.7 8.6,41.4 8.6,41.4 L8.3,46.4 L33.7,76.7 Z" id="Shape" fill="#E3E8EF"></path>
            <g transform="translate(0.000000, 41.000000)" id="Shape" fill="#FFFFFF">
                <path d="M0.6,7.6 C0.9,7.5 2.7,7.1 5.1,5 C7.6,2.8 8.6,0.5 8.6,0.5 C8.6,0.5 8.6,0.5 8.6,0.4 C7.9,-0.4 5.5,0.6 3.3,2.5 C1,4.5 -0.1,6.8 0.6,7.6 L0.6,7.6 Z"></path>
            </g>
            <path d="M9.7,55.1 L30.2,79.6 L33.6,76.7 L12.5,51.4 C11.4,52.5 10.5,53.8 9.7,55.1 Z" id="Shape" fill="#A1A8BD"></path>
            <path d="M22,6.7 C23.8,7.6 26.7,8.3 29.9,8.3 C33.2,8.3 36.1,7.6 37.8,6.7 L37.8,6 C36,6.8 33.1,7.4 29.9,7.4 C26.6,7.4 23.7,6.8 22,6 L22,6.7 Z" id="Shape" fill="#A1A8BD"></path>
        </g>
    </g>
</svg>
