<svg width="150px" height="150px" viewBox="0 0 150 150" version="1.1" xmlns="http://www.w3.org/2000/svg" xmlns:xlink="http://www.w3.org/1999/xlink">
    <!-- Generator: Sketch 42 (36781) - http://www.bohemiancoding.com/sketch -->
    <desc>Created with Sketch.</desc>
    <defs></defs>
    <g id="edibles" stroke="none" stroke-width="1" fill="none" fill-rule="evenodd">
        <circle id="Oval" fill="#0EB4E3" fill-rule="nonzero" cx="75" cy="75" r="75"></circle>
        <g id="Group" transform="translate(44.000000, 27.000000)" fill-rule="nonzero">
            <path d="M32.7,90.6 C32.7,91.5 31.9,92.3 31,92.3 L31,92.3 C30.1,92.3 29.3,91.5 29.3,90.6 L29.3,46.8 C29.3,45.9 30.1,45.1 31,45.1 L31,45.1 C31.9,45.1 32.7,45.9 32.7,46.8 L32.7,90.6 Z" id="Shape" fill="#E3E8EF"></path>
            <g>
                <g id="SVGID_1_-link" transform="translate(10.000000, 7.000000)" fill="#333333">
                    <circle id="SVGID_1_" cx="21" cy="20.9" r="20.2"></circle>
                </g>
                <path d="M34.8,60.7 C25,60.7 15.8,56.9 8.8,49.9 C3.2,44.3 0,36.8 0,28.8 C0,20.8 3.1,13.3 8.7,7.7 C13.3,3.1 19.4,0.6 25.9,0.6 C32.4,0.6 38.5,3.1 43.1,7.7 C50.9,15.5 50.9,28.1 43.1,35.9 C36.7,42.3 26.3,42.3 19.9,35.9 C17.3,33.3 15.9,29.9 15.9,26.3 C15.9,22.7 17.3,19.3 19.9,16.7 C22,14.6 24.9,13.4 27.9,13.4 C30.9,13.4 33.8,14.6 35.9,16.7 C37.7,18.5 38.7,20.9 38.7,23.4 C38.7,25.9 37.7,28.3 35.9,30.1 C34.4,31.6 32.4,32.5 30.2,32.5 C28,32.5 26,31.7 24.5,30.1 C23.6,29.2 23.6,27.8 24.5,26.9 C25.4,26 26.8,26 27.7,26.9 C29,28.2 31.3,28.2 32.6,26.9 C33.5,26 34,24.7 34,23.4 C34,22.1 33.5,20.8 32.6,19.9 C31.3,18.6 29.6,17.9 27.8,17.9 C26,17.9 24.3,18.6 23,19.9 C21.3,21.6 20.4,23.9 20.4,26.3 C20.4,28.7 21.3,31 23,32.7 C27.6,37.3 35.1,37.3 39.7,32.7 C45.7,26.7 45.7,17 39.7,11 C36,7.3 31,5.2 25.7,5.2 C20.4,5.2 15.5,7.3 11.7,11 C1.8,20.9 1.8,36.9 11.7,46.8 C17.8,52.9 25.9,56.2 34.4,56.2 C43,56.2 51.1,52.9 57.1,46.8 C58,45.9 59.4,45.9 60.3,46.8 C61.2,47.7 61.2,49.1 60.3,50 C53.8,56.9 44.6,60.7 34.8,60.7 Z" id="Shape" fill="#A1A8BD"></path>
            </g>
        </g>
    </g>
</svg>
