<svg width="150px" height="150px" viewBox="0 0 150 150" version="1.1" xmlns="http://www.w3.org/2000/svg" xmlns:xlink="http://www.w3.org/1999/xlink">
    <!-- Generator: Sketch 42 (36781) - http://www.bohemiancoding.com/sketch -->
    <desc>Created with Sketch.</desc>
    <defs></defs>
    <g id="evening" stroke="none" stroke-width="1" fill="none" fill-rule="evenodd">
        <circle id="Oval" fill="#0EB4E3" fill-rule="nonzero" cx="75" cy="75" r="75"></circle>
        <g id="XMLID_264_" transform="translate(21.000000, 35.000000)" fill-rule="nonzero">
            <g id="XMLID_196_" transform="translate(40.000000, 0.000000)" fill="#333333">
                <path d="M30.6,36.5 C20.7,26.6 18.2,12.3 22.8,0.1 C18.4,1.8 14.3,4.3 10.8,7.9 C-2.6,21.3 -2.6,43 10.8,56.3 C24.2,69.7 45.9,69.7 59.2,56.3 C62.7,52.8 65.3,48.7 67,44.3 C54.8,48.9 40.5,46.3 30.6,36.5 Z" id="XMLID_198_"></path>
                <path d="M67.1,44.2 C54.9,48.9 40.5,46.3 30.7,36.4 C30.4,36.1 30,35.7 29.7,35.3 L9.9,55.2 C10.2,55.6 10.5,55.9 10.9,56.3 C24.3,69.7 46,69.7 59.3,56.3 C62.8,52.7 65.4,48.6 67.1,44.2 Z" id="XMLID_197_"></path>
            </g>
            <path d="M43.6,23.2 C42.7,23.2 41.8,23.3 40.9,23.6 C37.9,18.9 32.7,15.7 26.7,15.7 C20.8,15.7 15.6,18.8 12.6,23.4 L12.6,23.4 L12.6,23.4 C12,23.3 11.3,23.2 10.7,23.2 C5.3,23.2 0.9,27.6 0.9,33 L10,33 L20.4,33 L33.8,33 L43.4,33 L53.3,33 C53.3,27.6 49,23.2 43.6,23.2 Z" id="XMLID_195_" fill="#FFFFFF"></path>
            <g id="XMLID_84_" transform="translate(14.000000, 51.000000)" fill="#FFFFFF">
                <g id="XMLID_86_">
                    <path d="M62.2,11.1 C54.3,11.1 48,17.5 48,25.3 L76.5,25.3 C76.4,17.5 70,11.1 62.2,11.1 Z" id="XMLID_90_"></path>
                    <path d="M62.8,25.4 L62.8,24.6 C62.8,11.1 51.9,0.2 38.4,0.2 C25,0.2 14,11.1 14,24.6 L14,25.4 L62.8,25.4 L62.8,25.4 Z" id="XMLID_89_"></path>
                    <path d="M15.1,11.1 C7.2,11.1 0.9,17.5 0.9,25.3 L29.4,25.3 C29.3,17.5 23,11.1 15.1,11.1 Z" id="XMLID_88_"></path>
                    <path d="M18,11.4 C15.4,15.4 14,20.2 14.1,25.4 L29.4,25.4 C29.3,18.5 24.5,12.7 18,11.4 Z" id="XMLID_87_"></path>
                </g>
                <rect id="XMLID_85_" x="0.9" y="25.2" width="75.7" height="2.6"></rect>
            </g>
        </g>
    </g>
</svg>
