<svg width="150px" height="150px" viewBox="0 0 150 150" version="1.1" xmlns="http://www.w3.org/2000/svg" xmlns:xlink="http://www.w3.org/1999/xlink">
    <!-- Generator: Sketch 42 (36781) - http://www.bohemiancoding.com/sketch -->
    <desc>Created with Sketch.</desc>
    <defs></defs>
    <g id="joint" stroke="none" stroke-width="1" fill="none" fill-rule="evenodd">
        <circle id="Oval" fill="#0EB4E3" fill-rule="nonzero" cx="75" cy="75" r="75"></circle>
        <g id="Group" transform="translate(32.000000, 64.000000)" fill-rule="nonzero">
            <polygon id="Shape" fill="#FFFFFF" points="2.9 16.2 25.8 19.2 73.8 3.8"></polygon>
            <g transform="translate(2.000000, 3.000000)" id="Shape">
                <path d="M0.9,13.2 L0.9,18.1 L3.9,18.1 C3,16.3 2.5,14.6 2.2,13 L0.9,13.2 Z" fill="#FFFFFF"></path>
                <path d="M15.6,10.7 C24.7,18.1 39.4,18.2 39.4,18.2 L74.3,18.2 L74.3,0.4 L15.6,10.7 Z" fill="#FFFFFF"></path>
                <path d="M2.1,13 C2.4,14.6 3,16.3 3.8,18.1 L49.1,18.1 C49.1,18.1 28,17.5 19,10 L2.1,13 Z" fill="#A1A8BD"></path>
            </g>
            <path d="M38.3,21.2 C38.3,21.2 9.6,21.1 7.6,0.9 C7.6,0.9 -3.7,7.6 2.8,21.2 L38.3,21.2 Z" id="Shape" fill="#FFFFFF"></path>
            <circle id="Oval" fill="#333333" cx="76.3" cy="12.3" r="8.9"></circle>
        </g>
    </g>
</svg>
