<svg width="151px" height="171px" viewBox="0 0 151 171" version="1.1" xmlns="http://www.w3.org/2000/svg" xmlns:xlink="http://www.w3.org/1999/xlink">
    <!-- Generator: Sketch 42 (36781) - http://www.bohemiancoding.com/sketch -->
    <desc>Created with Sketch.</desc>
    <defs></defs>
    <g id="morning" stroke="none" stroke-width="1" fill="none" fill-rule="evenodd">
        <circle id="Oval" fill="#0EB4E3" fill-rule="nonzero" cx="75.7" cy="75" r="75"></circle>
        <g id="XMLID_1_" transform="translate(31.000000, 83.000000)" fill-rule="nonzero">
            <circle id="XMLID_259_" fill="#F1F2F7" cx="44.6" cy="43.4" r="34.6"></circle>
            <g id="XMLID_111_">
                <g id="XMLID_113_">
                    <path d="M79.2,47.4 L88,39.1 L77.7,32.7 L82.4,21.5 L70.4,19.9 L70.1,7.8 L58.5,11.2 L53.3,0.2 L44.1,8.1 L34.9,0.2 L29.7,11.1 L18.1,7.6 L17.8,19.7 L5.8,21.2 L10.4,32.4 L7.10542736e-15,38.7 L8.8,47.1 L1.9,57.1 L13.3,61.2 L11,73.1 L23.1,72.2 L25.9,84 L36.6,78.2 L43.9,87.9 L51.3,78.3 L61.9,84.1 L64.8,72.3 L76.9,73.3 L74.7,61.4 L86.2,57.4 L79.2,47.4 Z M44,77.3 C25.5,77.3 10.5,62.3 10.5,43.8 C10.5,25.3 25.5,10.3 44,10.3 C62.5,10.3 77.5,25.3 77.5,43.8 C77.5,62.3 62.5,77.3 44,77.3 Z" id="XMLID_121_" fill="#FFFFFF"></path>
                    <g id="XMLID_117_" transform="translate(8.000000, 8.000000)" fill="#FFFFFF">
                        <path d="M36,71.2 C16.5,71.2 0.6,55.3 0.6,35.8 C0.6,16.3 16.5,0.4 36,0.4 C55.5,0.4 71.4,16.3 71.4,35.8 C71.4,55.3 55.5,71.2 36,71.2 Z M36,4.1 C18.5,4.1 4.3,18.3 4.3,35.8 C4.3,53.3 18.5,67.5 36,67.5 C53.5,67.5 67.7,53.3 67.7,35.8 C67.7,18.3 53.4,4.1 36,4.1 Z" id="XMLID_118_"></path>
                    </g>
                    <g id="XMLID_115_" transform="translate(21.000000, 20.000000)" fill="#E3E8EF">
                        <circle id="XMLID_116_" transform="translate(22.990613, 23.775240) rotate(-89.796782) translate(-22.990613, -23.775240) " cx="22.9906134" cy="23.7752401" r="22.8001434"></circle>
                    </g>
                </g>
            </g>
        </g>
        <path d="M45.2,45.5 C44.3,45.5 43.4,45.6 42.5,45.9 C39.5,41.2 34.3,38 28.3,38 C22.4,38 17.2,41.1 14.2,45.7 L14.2,45.7 L14.2,45.7 C13.6,45.6 12.9,45.5 12.3,45.5 C6.9,45.5 2.5,49.9 2.5,55.3 L11.6,55.3 L22,55.3 L35.4,55.3 L45,55.3 L55,55.3 C55,49.8 50.6,45.5 45.2,45.5 Z" id="XMLID_195_" fill="#FFFFFF" fill-rule="nonzero"></path>
        <path d="M96.9,19.2 C96.3,19.2 95.8,19.3 95.2,19.4 C93.4,16.5 90.2,14.5 86.5,14.5 C82.9,14.5 79.7,16.4 77.8,19.2 L77.8,19.2 L77.8,19.2 C77.4,19.1 77,19.1 76.6,19.1 C73.3,19.1 70.6,21.8 70.6,25.1 L76.2,25.1 L82.6,25.1 L90.9,25.1 L96.8,25.1 L102.9,25.1 C102.9,21.9 100.2,19.2 96.9,19.2 Z" id="XMLID_2_" fill="#FFFFFF" fill-rule="nonzero"></path>
        <path d="M140.9,46.2 C140,46.2 139.2,46.3 138.4,46.6 C135.7,42.2 130.8,39.3 125.2,39.3 C119.7,39.3 114.9,42.2 112.1,46.5 L112.1,46.5 L112.1,46.5 C111.5,46.4 110.9,46.3 110.3,46.3 C105.3,46.3 101.2,50.4 101.2,55.4 L109.6,55.4 L119.3,55.4 L131.7,55.4 L140.6,55.4 L149.8,55.4 C150,50.2 145.9,46.2 140.9,46.2 Z" id="XMLID_3_" fill="#FFFFFF" fill-rule="nonzero"></path>
    </g>
</svg>
