<svg width="150px" height="150px" viewBox="0 0 150 150" version="1.1" xmlns="http://www.w3.org/2000/svg" xmlns:xlink="http://www.w3.org/1999/xlink">
    <!-- Generator: Sketch 42 (36781) - http://www.bohemiancoding.com/sketch -->
    <desc>Created with Sketch.</desc>
    <defs></defs>
    <g id="vape" stroke="none" stroke-width="1" fill="none" fill-rule="evenodd">
        <circle id="Oval" fill="#0EB4E3" fill-rule="nonzero" cx="75" cy="75" r="75"></circle>
        <g id="Group" transform="translate(66.000000, 27.000000)" fill-rule="nonzero">
            <path d="M15.9,95.3 L2.1,95.3 C1,95.3 0.1,94.4 0.1,93.3 L0.1,35.7 C0.1,34.6 1,33.7 2.1,33.7 L15.9,33.7 C17,33.7 17.9,34.6 17.9,35.7 L17.9,93.3 C17.9,94.4 17,95.3 15.9,95.3 Z" id="Shape" fill="#333333"></path>
            <g>
                <rect id="Rectangle-path" fill="#FFFFFF" x="5.3" y="90.8" width="7.5" height="1.6"></rect>
                <g>
                    <g>
                        <g transform="translate(3.000000, 8.000000)" id="Rectangle-path">
                            <rect fill="#A1A8BD" x="0.7" y="0.9" width="10.6" height="23.8"></rect>
                            <rect fill="#D2D7D4" opacity="0.5" x="0.7" y="3.3" width="0.8" height="17.7"></rect>
                            <rect fill="#D2D7D4" opacity="0.5" x="10.5" y="3.3" width="0.8" height="17.7"></rect>
                        </g>
                        <g transform="translate(6.000000, 11.000000)">
                            <rect id="Rectangle-path" fill="#F1F2F7" x="0" y="8.4" width="6" height="9.6"></rect>
                            <polygon id="Shape" fill="#FFFFFF" points="1.8 4.9 0 8.4 6 8.4 4.2 4.9"></polygon>
                            <rect id="Rectangle-path" fill="#FFFFFF" x="1.8" y="0.3" width="2.4" height="4.6"></rect>
                        </g>
                        <rect id="Rectangle-path" fill="#A1A8BD" x="3.7" y="20.6" width="10.6" height="8.4"></rect>
                        <rect id="Rectangle-path" fill="#A1A8BD" x="0.1" y="37.2" width="17.8" height="9.5"></rect>
                        <path d="M6.7,7.8 L6.7,1.1 C6.7,0.8 6.9,0.6 7.2,0.6 L10.8,0.6 C11.1,0.6 11.3,0.8 11.3,1.1 L11.3,7.8 L6.7,7.8 Z" id="Shape" fill="#2B2C2B"></path>
                        <polygon id="Shape" fill="#3E3E3E" points="11.3 7.8 6.7 7.8 3.7 8.9 14.3 8.9"></polygon>
                        <g transform="translate(3.000000, 29.000000)">
                            <rect id="Rectangle-path" fill="#2B2C2B" x="0.7" y="0" width="10.6" height="3.7"></rect>
                            <g transform="translate(1.000000, 0.000000)" id="Shape" fill="#383938">
                                <path d="M1,3.1 C1,3.2 0.9,3.3 0.8,3.3 L0.8,3.3 C0.7,3.3 0.6,3.2 0.6,3.1 L0.6,0.6 C0.6,0.5 0.7,0.4 0.8,0.4 L0.8,0.4 C0.9,0.4 1,0.5 1,0.6 L1,3.1 Z"></path>
                                <path d="M2,3.1 C2,3.2 1.9,3.3 1.8,3.3 L1.8,3.3 C1.7,3.3 1.6,3.2 1.6,3.1 L1.6,0.6 C1.6,0.5 1.7,0.4 1.8,0.4 L1.8,0.4 C1.9,0.4 2,0.5 2,0.6 L2,3.1 Z"></path>
                                <path d="M3.1,3.1 C3.1,3.2 3,3.3 2.9,3.3 L2.9,3.3 C2.8,3.3 2.7,3.2 2.7,3.1 L2.7,0.6 C2.7,0.5 2.8,0.4 2.9,0.4 L2.9,0.4 C3,0.4 3.1,0.5 3.1,0.6 L3.1,3.1 Z"></path>
                                <path d="M4.1,3.1 C4.1,3.2 4,3.3 3.9,3.3 L3.9,3.3 C3.8,3.3 3.7,3.2 3.7,3.1 L3.7,0.6 C3.7,0.5 3.8,0.4 3.9,0.4 L3.9,0.4 C4,0.4 4.1,0.5 4.1,0.6 L4.1,3.1 Z"></path>
                                <path d="M5.2,3.1 C5.2,3.2 5.1,3.3 5,3.3 L5,3.3 C4.9,3.3 4.8,3.2 4.8,3.1 L4.8,0.6 C4.8,0.5 4.9,0.4 5,0.4 L5,0.4 C5.1,0.4 5.2,0.5 5.2,0.6 L5.2,3.1 Z"></path>
                                <path d="M6.2,3.1 C6.2,3.2 6.1,3.3 6,3.3 L6,3.3 C5.9,3.3 5.8,3.2 5.8,3.1 L5.8,0.6 C5.8,0.5 5.9,0.4 6,0.4 L6,0.4 C6.1,0.4 6.2,0.5 6.2,0.6 L6.2,3.1 Z"></path>
                                <path d="M7.2,3.1 C7.2,3.2 7.1,3.3 7,3.3 L7,3.3 C6.9,3.3 6.8,3.2 6.8,3.1 L6.8,0.6 C6.8,0.5 6.9,0.4 7,0.4 L7,0.4 C7.1,0.4 7.2,0.5 7.2,0.6 L7.2,3.1 Z"></path>
                                <path d="M8.3,3.1 C8.3,3.2 8.2,3.3 8.1,3.3 L8.1,3.3 C8,3.3 7.9,3.2 7.9,3.1 L7.9,0.6 C7.9,0.5 8,0.4 8.1,0.4 L8.1,0.4 C8.2,0.4 8.3,0.5 8.3,0.6 L8.3,3.1 Z"></path>
                                <path d="M9.3,3.1 C9.3,3.2 9.2,3.3 9.1,3.3 L9.1,3.3 C9,3.3 8.9,3.2 8.9,3.1 L8.9,0.6 C8.9,0.5 9,0.4 9.1,0.4 L9.1,0.4 C9.2,0.4 9.3,0.5 9.3,0.6 L9.3,3.1 Z"></path>
                            </g>
                        </g>
                        <g transform="translate(3.000000, 8.000000)">
                            <rect id="Rectangle-path" fill="#2B2C2B" x="0.7" y="0.9" width="10.6" height="3.7"></rect>
                            <g transform="translate(1.000000, 1.000000)" id="Shape" fill="#383938">
                                <path d="M1,2.9 C1,3 0.9,3.1 0.8,3.1 L0.8,3.1 C0.7,3.1 0.6,3 0.6,2.9 L0.6,0.4 C0.6,0.3 0.7,0.2 0.8,0.2 L0.8,0.2 C0.9,0.2 1,0.3 1,0.4 L1,2.9 Z"></path>
                                <path d="M2,2.9 C2,3 1.9,3.1 1.8,3.1 L1.8,3.1 C1.7,3.1 1.6,3 1.6,2.9 L1.6,0.4 C1.6,0.3 1.7,0.2 1.8,0.2 L1.8,0.2 C1.9,0.2 2,0.3 2,0.4 L2,2.9 Z"></path>
                                <path d="M3.1,2.9 C3.1,3 3,3.1 2.9,3.1 L2.9,3.1 C2.8,3.1 2.7,3 2.7,2.9 L2.7,0.4 C2.7,0.3 2.8,0.2 2.9,0.2 L2.9,0.2 C3,0.2 3.1,0.3 3.1,0.4 L3.1,2.9 Z"></path>
                                <path d="M4.1,2.9 C4.1,3 4,3.1 3.9,3.1 L3.9,3.1 C3.8,3.1 3.7,3 3.7,2.9 L3.7,0.4 C3.7,0.3 3.8,0.2 3.9,0.2 L3.9,0.2 C4,0.2 4.1,0.3 4.1,0.4 L4.1,2.9 Z"></path>
                                <path d="M5.2,2.9 C5.2,3 5.1,3.1 5,3.1 L5,3.1 C4.9,3.1 4.8,3 4.8,2.9 L4.8,0.4 C4.8,0.3 4.9,0.2 5,0.2 L5,0.2 C5.1,0.2 5.2,0.3 5.2,0.4 L5.2,2.9 Z"></path>
                                <path d="M6.2,2.9 C6.2,3 6.1,3.1 6,3.1 L6,3.1 C5.9,3.1 5.8,3 5.8,2.9 L5.8,0.4 C5.8,0.3 5.9,0.2 6,0.2 L6,0.2 C6.1,0.2 6.2,0.3 6.2,0.4 L6.2,2.9 Z"></path>
                                <path d="M7.2,2.9 C7.2,3 7.1,3.1 7,3.1 L7,3.1 C6.9,3.1 6.8,3 6.8,2.9 L6.8,0.4 C6.8,0.3 6.9,0.2 7,0.2 L7,0.2 C7.1,0.2 7.2,0.3 7.2,0.4 L7.2,2.9 Z"></path>
                                <path d="M8.3,2.9 C8.3,3 8.2,3.1 8.1,3.1 L8.1,3.1 C8,3.1 8,3 8,2.9 L8,0.4 C8,0.3 8.1,0.2 8.2,0.2 L8.2,0.2 C8.3,0.2 8.4,0.3 8.4,0.4 L8.4,2.9 L8.3,2.9 Z"></path>
                                <path d="M9.3,2.9 C9.3,3 9.2,3.1 9.1,3.1 L9.1,3.1 C9,3.1 8.9,3 8.9,2.9 L8.9,0.4 C8.9,0.3 9,0.2 9.1,0.2 L9.1,0.2 C9.2,0.2 9.3,0.3 9.3,0.4 L9.3,2.9 Z"></path>
                            </g>
                        </g>
                        <path d="M11.3,7.8 L11.3,7.8 L11.3,1.1 C11.3,0.8 11.1,0.6 10.8,0.6 L9,0.6 L9,32.6 L14.3,32.6 L14.3,29 L14.3,20.6 L14.3,11.3 L14.3,8.9 L11.3,7.8 Z" id="Shape" fill="#A1A8BD" opacity="0.5"></path>
                    </g>
                    <rect id="Rectangle-path" fill="#A1A8BD" x="3.7" y="32.7" width="10.6" height="1"></rect>
                </g>
            </g>
            <circle id="Oval" fill="#FFFFFF" cx="9" cy="42" r="3.2"></circle>
        </g>
    </g>
</svg>
