<?xml version="1.0" encoding="UTF-8" standalone="no"?>
<svg width="16px" height="16px" viewBox="0 0 16 16" version="1.1" xmlns="http://www.w3.org/2000/svg" xmlns:xlink="http://www.w3.org/1999/xlink">
    <!-- Generator: Sketch 46.2 (44496) - http://www.bohemiancoding.com/sketch -->
    <title>icons/hamburger close</title>
    <desc>Created with Sketch.</desc>
    <defs></defs>
    <g id="Landing-Page" stroke="none" stroke-width="1" fill="none" fill-rule="evenodd">
        <g id="iPhone-7---hamburger-menu" transform="translate(-327.000000, -32.000000)">
            <g id="icons/hamburger-close" transform="translate(319.000000, 24.000000)">
                <rect id="Rectangle-6" x="0" y="0" width="32" height="32"></rect>
                <path d="M14.5,14.5 L7.5,14.5 L7.5,14.5 C6.67157288,14.5 6,15.1715729 6,16 C6,16.8284271 6.67157288,17.5 7.5,17.5 L14.5,17.5 L14.5,24.5 C14.5,25.3284271 15.1715729,26 16,26 C16.8284271,26 17.5,25.3284271 17.5,24.5 L17.5,17.5 L24.5,17.5 C25.3284271,17.5 26,16.8284271 26,16 C26,15.1715729 25.3284271,14.5 24.5,14.5 L17.5,14.5 L17.5,7.5 L17.5,7.5 C17.5,6.67157288 16.8284271,6 16,6 L16,6 L16,6 C15.1715729,6 14.5,6.67157288 14.5,7.5 L14.5,14.5 Z" id="Combined-Shape" fill="#FFFFFF" fill-rule="evenodd" transform="translate(16.000000, 16.000000) rotate(-45.000000) translate(-16.000000, -16.000000) "></path>
            </g>
        </g>
    </g>
</svg>